<?xml version="1.0" encoding="UTF-8" standalone="no"?>
<!DOCTYPE svg PUBLIC "-//W3C//DTD SVG 1.1//EN" "http://www.w3.org/Graphics/SVG/1.1/DTD/svg11.dtd">
<svg width="100%" height="100%" viewBox="0 0 96 26" version="1.1" xmlns="http://www.w3.org/2000/svg" xmlns:xlink="http://www.w3.org/1999/xlink" xml:space="preserve" xmlns:serif="http://www.serif.com/" style="fill-rule:evenodd;clip-rule:evenodd;stroke-linejoin:round;stroke-miterlimit:2;">
    <g id="Layer_3" transform="matrix(1,0,0,1,0.890683,-0.286785)">
        <path d="M3.469,19.588L1.031,21.796C1.031,21.796 2.227,23.291 3.814,24.188C5.401,25.085 6.276,25.018 8.058,24.994C9.771,24.994 11.519,24.671 12.922,23.429C14.325,22.187 14.59,21.847 14.584,20.281C14.581,19.546 14.386,17.923 13.497,16.874C12.491,15.688 10.777,15.114 10.777,15.114C10.777,15.114 5.528,13.798 6.068,11.975C6.294,11.211 7.506,10.922 8.697,11.132C10.205,11.398 11.729,12.304 11.729,12.304L13.859,10.22C13.859,10.22 12.888,9.079 11.381,8.341C10.265,7.795 8.726,7.594 7.741,7.591C5.424,7.582 2.527,9.651 2.181,11.791C1.928,13.355 2.435,14.676 3.584,15.678C5.033,16.943 6.064,17.108 6.064,17.108C6.064,17.108 10.686,18.298 10.686,19.737C10.686,21.175 9.564,21.704 7.77,21.727C5.976,21.75 3.469,19.588 3.469,19.588Z" style="fill:rgb(246,202,198);fill-rule:nonzero;"/>
        <path d="M36.789,8.369L36.826,11.718L38.74,11.718L38.758,21.635C38.758,21.635 39.09,22.776 39.954,23.622C41.07,24.715 42.236,24.994 42.236,24.994L45.989,24.994L46.008,21.58L43.984,21.562C43.984,21.562 43.542,21.58 43.045,21.102C42.53,20.605 42.549,19.961 42.549,19.961L42.585,11.699L46.265,11.699L46.284,8.35L42.604,8.332L42.567,1.855L38.74,1.855L38.777,8.369L36.789,8.369L36.789,8.369Z" style="fill:rgb(246,202,198);fill-rule:nonzero;"/>
        <path d="M29.091,9.169C26.785,8.66 24.445,8.916 22.95,9.79L24.905,1.855L21.006,0.901L15.463,23.245L19.327,24.361L19.86,22.172C20.995,24.319 22.288,25.351 24.767,25.913C29.367,26.956 33.472,23.749 34.58,18.799C35.531,14.551 32.633,9.951 29.091,9.169ZM30.211,21.545L24.663,23.073L20.525,18.882L21.936,13.164L27.484,11.636L31.622,15.827L30.211,21.545Z" style="fill:rgb(246,202,198);fill-rule:nonzero;"/>
    </g>
    <g transform="matrix(6.97292,0,0,6.97292,47.761,24.4388)">
        <text x="0px" y="0px" style="font-family:'FiraCodeNFM-Bold', 'FiraCode Nerd Font Mono', monospace;font-weight:700;font-size:2.208px;fill:white;">.CONF</text>
    </g>
</svg>
